<svg width="48" height="49" viewBox="0 0 48 49" fill="none" xmlns="http://www.w3.org/2000/svg">
<g clip-path="url(#clip0_1_228)">
<path d="M38.4558 1.61532C38.4558 1.03 37.9812 0.555542 37.396 0.555542H10.6042C10.019 0.555542 9.54443 1.03 9.54443 1.61532V6.12392C9.54443 6.12456 9.54454 6.12509 9.54454 6.12572C9.54454 6.1359 9.54581 6.14618 9.54613 6.15635C9.54698 6.18338 9.54783 6.21029 9.55069 6.23679C9.55079 6.23764 9.55079 6.23859 9.5509 6.23944L12.7019 34.9692V40.7474C12.7019 40.7509 12.7014 40.7542 12.7014 40.7577V45.5348C12.7014 47.2004 14.0565 48.5554 15.7222 48.5554H32.2783C33.944 48.5554 35.2991 47.2003 35.2991 45.5348V40.7577C35.2991 40.7542 35.2986 40.7509 35.2986 40.7474V35.0125L38.4496 6.23923C38.4497 6.23838 38.4496 6.23764 38.4497 6.23679C38.4526 6.20976 38.4535 6.18232 38.4544 6.15476C38.4547 6.14501 38.4559 6.13526 38.4559 6.12551C38.4559 6.12498 38.456 6.12445 38.456 6.12382V1.61532H38.4558ZM11.664 2.67509H36.3363V5.06415H11.664V2.67509ZM33.1788 39.6979H28.3849H19.6153H14.8214V35.9927H33.1789V39.6979H33.1788ZM20.675 41.8175H27.3251V42.8024H20.675V41.8175ZM33.1793 45.5348C33.1793 46.0317 32.7751 46.4359 32.2781 46.4359H15.7221C15.2252 46.4359 14.8208 46.0316 14.8208 45.5348V41.8175H18.5555V43.0225C18.5555 44.0698 19.4077 44.922 20.455 44.922H27.5453C28.5926 44.922 29.4447 44.0699 29.4447 43.0225V41.8175H33.1793V45.5348ZM33.2909 33.8732H14.7138L11.7866 7.1837H36.2138L33.2909 33.8732Z" fill="black" fill-opacity="0.5"/>
</g>
<defs>
<clipPath id="clip0_1_228">
<rect width="48" height="48" fill="white" transform="translate(0 0.555542)"/>
</clipPath>
</defs>
</svg>
